<svg xmlns="http://www.w3.org/2000/svg" viewBox="0 0 32 32">
  <!-- Fondo circular oscuro -->
  <circle cx="16" cy="16" r="15" fill="#0f172a"/>
  <circle cx="16" cy="16" r="14" fill="#1e293b" stroke="#f59e0b" stroke-width="1"/>
  
  <!-- Flask/Matraz -->
  <path d="M13 6 L13 12 L8 24 C7 26 8.5 28 11 28 L21 28 C23.5 28 25 26 24 24 L19 12 L19 6 Z" 
        fill="#f59e0b" 
        stroke="#fbbf24" 
        stroke-width="0.5"/>
  
  <!-- Cuello del matraz -->
  <rect x="12" y="4" width="8" height="3" rx="1" fill="#f59e0b" stroke="#fbbf24" stroke-width="0.5"/>
  
  <!-- Líquido burbujeante -->
  <path d="M9 22 Q12 20 16 22 Q20 24 23 22 L22 26 C21 27 20 27 19 27 L13 27 C12 27 11 27 10 26 Z" 
        fill="#06b6d4" 
        opacity="0.9"/>
  
  <!-- Burbujas -->
  <circle cx="12" cy="23" r="1.2" fill="#22d3ee" opacity="0.8"/>
  <circle cx="16" cy="21" r="0.8" fill="#22d3ee" opacity="0.9"/>
  <circle cx="19" cy="24" r="1" fill="#22d3ee" opacity="0.7"/>
  <circle cx="14" cy="25" r="0.6" fill="#22d3ee" opacity="0.8"/>
  
  <!-- Brillo -->
  <path d="M14 8 L14 11 L10 20" stroke="white" stroke-width="0.5" opacity="0.3" fill="none"/>
</svg>

